<?xml version="1.0" standalone="no"?><!DOCTYPE svg PUBLIC "-//W3C//DTD SVG 1.1//EN" "http://www.w3.org/Graphics/SVG/1.1/DTD/svg11.dtd"><svg t="1692279825914" class="icon" viewBox="0 0 1070 1024" version="1.1" xmlns="http://www.w3.org/2000/svg" p-id="17160" xmlns:xlink="http://www.w3.org/1999/xlink" width="208.984375" height="200"><path d="M1068.859898 884.731842a46.422719 46.422719 0 0 1-92.845438 0l0.139268-101.24795a589.243575 589.243575 0 0 1-454.246307 238.891313 45.262151 45.262151 0 0 1-11.60568 1.624795 46.422719 46.422719 0 0 1-17.803113-3.551338 510.348164 510.348164 0 1 1 500.2048-677.168205 46.144183 46.144183 0 0 1 8.216821 24.975423c0.255325 0.928454 0.626707 1.787275 0.882031 2.692518h-0.85882l-0.301748 3.133533a46.422719 46.422719 0 0 1-65.107863 42.453577c-1.067723 0-2.089022 0.301748-3.179956 0.301748l-235.293553 0.441015 0.208902 185.505186 95.886127-0.162479a46.422719 46.422719 0 0 1 0 92.845438l-95.77007 0.139268 0.232114 192.329326c140.475148-60.651283 254.117965-184.228561 274.265425-331.295736h4.642272v-1.067722a46.422719 46.422719 0 0 1 92.845438 0zM325.678587 417.742499l-93.88995 0.139268a46.422719 46.422719 0 0 1 0-92.845439l93.773893-0.139268-0.232114-189.915344a416.086832 416.086832 0 0 0-222.643361 468.567716l223.223645-0.324959z m0.324959 278.327413l-190.031401 0.278536a420.334511 420.334511 0 0 0 190.333148 188.940467z m184.321406-604.609495a419.150732 419.150732 0 0 0-92.19552 10.514745l0.278536 222.829053 185.690877-0.278537-0.278536-222.388036a417.525937 417.525937 0 0 0-93.518568-10.677225zM884.584914 324.061451a420.914795 420.914795 0 0 0-187.872744-188.429817l0.232113 188.708353z m-280.370012 93.21682l-185.690877 0.278537 0.232114 185.481974 185.690876-0.278536z m0.324959 278.327413l-185.690877 0.278537 0.278536 222.039866a417.804473 417.804473 0 0 0 81.587929 10.050518 44.496176 44.496176 0 0 1 20.193883 0 455.708623 455.708623 0 0 0 83.909065-10.212998z" fill="#0090FF" p-id="17161"></path></svg>