<?xml version="1.0" standalone="no"?><!DOCTYPE svg PUBLIC "-//W3C//DTD SVG 1.1//EN" "http://www.w3.org/Graphics/SVG/1.1/DTD/svg11.dtd"><svg t="1692279859261" class="icon" viewBox="0 0 1024 1024" version="1.1" xmlns="http://www.w3.org/2000/svg" p-id="21790" xmlns:xlink="http://www.w3.org/1999/xlink" width="200" height="200"><path d="M411.733333 394.666667a100.266667 98.133333 0 1 0 200.533334 0 100.266667 98.133333 0 1 0-200.533334 0Z" fill="#3D7EFF" p-id="21791"></path><path d="M512 0C228.266667 0 0 228.266667 0 512s228.266667 512 512 512 512-228.266667 512-512S795.733333 0 512 0z m215.466667 768c-10.666667 0-19.2-8.533333-19.2-19.2 0-113.066667-87.466667-202.666667-194.133334-202.666667S320 637.866667 320 748.8c0 10.666667-8.533333 19.2-19.2 19.2s-23.466667-8.533333-23.466667-19.2c0-110.933333 70.4-202.666667 168.533334-232.533333-44.8-23.466667-74.666667-68.266667-74.666667-121.6 0-76.8 64-138.666667 140.8-138.666667s140.8 61.866667 140.8 138.666667c0 53.333333-29.866667 98.133333-74.666667 121.6C676.266667 546.133333 746.666667 640 746.666667 748.8c0 10.666667-8.533333 19.2-19.2 19.2z" fill="#3D7EFF" p-id="21792"></path></svg>