<?xml version="1.0" standalone="no"?><!DOCTYPE svg PUBLIC "-//W3C//DTD SVG 1.1//EN" "http://www.w3.org/Graphics/SVG/1.1/DTD/svg11.dtd"><svg t="1692279893055" class="icon" viewBox="0 0 1024 1024" version="1.1" xmlns="http://www.w3.org/2000/svg" p-id="24615" xmlns:xlink="http://www.w3.org/1999/xlink" width="200" height="200"><path d="M512 64c-140.8 0-256 115.2-256 256 0 89.6 46.4 168 116.8 214.4C193.6 593.6 64 761.6 64 960c0 17.6 14.4 32 32 32s32-14.4 32-32c0-211.2 172.8-384 384-384 140.8 0 256-115.2 256-256S652.8 64 512 64z m0 448c-105.6 0-192-86.4-192-192S406.4 128 512 128s192 86.4 192 192-86.4 192-192 192z" fill="#4F76B4" p-id="24616"></path><path d="M944 804.8l-44.8-25.6c4.8-12.8 6.4-27.2 6.4-43.2s-1.6-28.8-6.4-43.2l44.8-25.6c16-9.6 20.8-28.8 11.2-43.2s-27.2-20.8-43.2-11.2l-44.8 25.6c-19.2-20.8-44.8-35.2-73.6-43.2V544c0-17.6-14.4-32-32-32s-32 14.4-32 32v51.2c-28.8 6.4-54.4 22.4-73.6 43.2l-44.8-25.6c-16-8-35.2-3.2-43.2 11.2-8 16-3.2 35.2 11.2 43.2l44.8 25.6c-4.8 12.8-6.4 27.2-6.4 43.2s1.6 28.8 6.4 43.2l-44.8 25.6c-16 8-20.8 28.8-11.2 43.2 9.6 16 28.8 20.8 43.2 11.2l44.8-25.6c19.2 20.8 44.8 35.2 73.6 43.2V928c0 17.6 14.4 32 32 32s32-14.4 32-32v-51.2c28.8-6.4 54.4-22.4 73.6-43.2l44.8 25.6c16 8 35.2 3.2 43.2-11.2s4.8-35.2-11.2-43.2z m-182.4 11.2c-44.8 0-80-35.2-80-80s35.2-80 80-80 80 35.2 80 80-35.2 80-80 80z" fill="#4F76B4" p-id="24617"></path></svg>