<?xml version="1.0" standalone="no"?><!DOCTYPE svg PUBLIC "-//W3C//DTD SVG 1.1//EN" "http://www.w3.org/Graphics/SVG/1.1/DTD/svg11.dtd"><svg t="1691670690879" class="icon" viewBox="0 0 1024 1024" version="1.1" xmlns="http://www.w3.org/2000/svg" p-id="4017" xmlns:xlink="http://www.w3.org/1999/xlink" width="200" height="200"><path d="M263.73 317.43s-42.85-87.88-45-93.65c3.25-1.51 34.93-16.48 34.93-16.48l39.88 97z" fill="#66114A" p-id="4018"></path><path d="M480.09 314.08C450 309 420 303.26 390.54 295.42c-38.6-10.27-88.11-5.8-129.31 21.56s-64.55 71.28-70.05 110.85a883.84 883.84 0 0 1-17.1 87.87 268.56 268.56 0 0 0 37.26 213c82.12 123.64 250.21 157.4 373.71 75.06s157.12-249.26 75-373a268.55 268.55 0 0 0-179.96-116.68z" fill="#FFCB22" p-id="4019"></path><path d="M436.61 858.9a284.11 284.11 0 0 1-55.92-5.59c-73.41-14.75-136.53-57-177.73-119.07a278.65 278.65 0 0 1-38.65-220.93 870.17 870.17 0 0 0 16.9-86.87c6.57-47.2 34.4-91.26 74.45-117.85s91.42-35.14 137.46-22.9c25.4 6.76 52.74 12.45 88.63 18.46a279.27 279.27 0 0 1-45.14 554.75z m-85.82-558.48a156.27 156.27 0 0 0-22.48 1.63 150.92 150.92 0 0 0-127.16 127.16 887.13 887.13 0 0 1-17.29 88.88 258.51 258.51 0 0 0 35.86 205c38.23 57.55 96.8 96.79 164.93 110.47a263.19 263.19 0 0 0 51.92 5.2A259.14 259.14 0 0 0 478.42 324c-36.53-6.11-64.42-11.93-90.42-18.85a144.75 144.75 0 0 0-37.21-4.73z" fill="#66114A" p-id="4020"></path><path d="M390.54 295.42c-38.6-10.27-88.11-5.8-129.31 21.56-2.13 1.41-4.19 2.87-6.22 4.37 33.46 13.91 73.38 50.66 112.16 58.85 75.37 15.92 139.3-26.75 215.29 0.22-2.76-10.32-6.16-21.45-10.34-32.94a270 270 0 0 0-92-33.4C450 309 420 303.26 390.54 295.42z" fill="#66114A" p-id="4021"></path><path d="M274.1 296c36.89 1.83 85.83 54.2 133.07 64.17 75.37 15.92 139.3-26.75 215.29 0.22-19-70.87-67.82-180.15-197.9-182.55C346 176.42 293 251.77 274.1 296z" fill="#4C8F92" p-id="4022"></path><path d="M634.46 373.41l-14.75-5.24c-39.25-13.93-74.94-8.38-112.72-2.51-32.23 5-65.55 10.19-101.52 2.59-24.66-5.21-48.69-20.59-71.92-35.47-22.25-14.25-43.26-27.71-59.86-28.53l-11.79-0.59 4.63-10.86c19.81-46.46 75.47-124.66 158.18-123.16 59.87 1.11 109.25 24.16 146.75 68.52 26 30.77 45.86 71.19 58.95 120.13z m-348.37-83.77c17.7 4.53 36.57 16.62 56.34 29.28 22 14.08 44.72 28.65 66.44 33.23 33 7 63.41 2.25 95.59-2.75 33.73-5.24 68.48-10.64 105.93-1.22-23.34-75.94-74.39-160-186-162.08h-2.11c-31.83 0-62 13.34-89.69 39.69-18.14 17.21-35.04 40.55-46.5 63.85z" fill="#195579" p-id="4023"></path><path d="M622.46 360.42c-6.44-24.07-16.33-52.56-31.68-79.8-47.83-6-94 8.23-126.46 31.3-22.48 16-45.75 30.79-69.52 44.77a99.84 99.84 0 0 0 12.37 3.51c75.37 15.92 139.3-26.75 215.29 0.22z" fill="#66114A" p-id="4024"></path><path d="M585.05 803.73c123.55-82.37 157.12-249.26 75-373a268.55 268.55 0 0 0-179.96-116.65c-5-0.84-10.08-1.72-15.11-2.61l-0.66 0.45a993.07 993.07 0 0 1-84.92 53.68 301.34 301.34 0 0 0-145.22 194.34c-19.92 85.55-1 171.38 45.12 238.9 88.43 62.81 210.38 68.47 305.75 4.89z" fill="#66114A" p-id="4025"></path><path d="M278.92 301.62a8.23 8.23 0 0 1-4.42-15.17 353.07 353.07 0 0 1 66-31.16c50.5-17.74 95.12-19.29 129.14-4.43a8.23 8.23 0 1 1-6.58 15.08c-73.59-32.12-178.68 33.73-179.74 34.4a8.17 8.17 0 0 1-4.4 1.28z" fill="#195579" p-id="4026"></path><path d="M643.17 303.39s34.56-91.45 37.26-97c3.34 1.34 36 14.12 36 14.12l-43.24 95.55z" fill="#66114A" p-id="4027"></path><path d="M570.5 887.8a280.72 280.72 0 0 1-63.08-7.22c-72.58-16.76-134.36-61-174-124.52s-52.14-138.46-35.26-211A278.61 278.61 0 0 1 432.43 365.4a868.55 868.55 0 0 0 74.82-47.28c27.72-19.7 63.77-31 98.9-31a167.77 167.77 0 0 1 37.92 4.33c46.8 10.9 88.28 42.43 110.95 84.33 12.5 23.12 27.11 46.91 47.35 77.15A279.41 279.41 0 0 1 570.51 887.8z" fill="#FFCB22" p-id="4028"></path><path d="M606.15 297.19a157.52 157.52 0 0 1 35.64 4.07c48.16 11.22 85.37 44.19 104.37 79.32 14.52 26.83 30.88 52.61 47.85 78a268.53 268.53 0 0 1 38.52 210.92c-28.95 124.31-139.66 208.27-262 208.27a269.82 269.82 0 0 1-60.82-7C365.06 837.37 274.34 691.91 308 547.34a268.53 268.53 0 0 1 129.4-173.18 883.31 883.31 0 0 0 75.67-47.84c24.48-17.38 57.65-29.13 93.08-29.13m0-20.13a184.28 184.28 0 0 0-56.85 9 176.21 176.21 0 0 0-47.88 23.82 856.55 856.55 0 0 1-74 46.74 289.58 289.58 0 1 0 383.27 90.69c-20.05-30-34.51-53.5-46.86-76.34a182.78 182.78 0 0 0-117.52-89.34 177.42 177.42 0 0 0-40.2-4.6z" fill="#66114A" p-id="4029"></path><path d="M839.3 595.76A269.25 269.25 0 0 0 794 458.54c-17-25.35-33.33-51.13-47.85-78-19-35.13-56.21-68.1-104.37-79.32l-0.71-0.15c9.92 37.77 13.16 88.16 33.35 121.26C719 495.51 801.78 515.5 839.3 595.76z" fill="#66114A" p-id="4030"></path><path d="M671.86 290.27c24 28.09 19.43 99.63 44.57 140.85 40.11 65.76 115 83 147.51 156.81 38.57-62.4 84.57-172.91-2.9-269.22-52.84-58.18-144.04-45.07-189.18-28.44z" fill="#4C8F92" p-id="4031"></path><path d="M862.72 605.57l-6.31-14.32c-16.78-38.12-45.3-60.29-75.49-83.75-25.74-20-52.37-40.71-71.51-72.1-13.13-21.52-18.41-49.55-23.52-76.66-4.89-26-9.51-50.5-20.29-63.13l-7.66-9 11.06-4.06c47.4-17.46 142.46-30.66 198.12 30.63 40.26 44.32 57.35 96.06 50.8 153.78-4.54 40-20.35 82.2-47 125.3z m-178-311c8.84 16 13 38 17.33 61.08 4.84 25.66 9.84 52.19 21.4 71.14 17.55 28.86 41.86 47.73 67.55 67.72 27 21 54.72 42.53 73.55 76.24C903.82 501.68 930 406.86 855 324.24c-21.92-24.14-52.82-37.46-91.84-39.59-25.06-1.37-53.62 2.35-78.43 9.96z" fill="#195579" p-id="4032"></path><path d="M831.1 412.58a8.22 8.22 0 0 1-7.74-5.45c-27.07-75.47-147.1-106.89-148.31-107.2A8.23 8.23 0 1 1 679.1 284a354.17 354.17 0 0 1 67.9 26.63c47.54 24.56 79.29 56 91.82 90.95a8.23 8.23 0 0 1-5 10.52 8.13 8.13 0 0 1-2.72 0.48z" fill="#195579" p-id="4033"></path><path d="M608.49 363.12A17.23 17.23 0 0 1 583.94 339c6.67-6.78 33.15-9.12 33.15-9.12s-1.92 26.46-8.6 33.24zM593.25 441.31a14.09 14.09 0 1 1-27.25-7.14c2-7.53 19.8-20 19.8-20s9.43 19.61 7.45 27.14zM668.09 451.38a12.62 12.62 0 0 1-24.66-5.38c1.49-6.81 17-18.61 17-18.61s9.15 17.18 7.66 23.99zM506.37 391.43a14.09 14.09 0 1 1-21.07-18.72c5.17-5.82 26.7-8.84 26.7-8.84s-0.46 21.74-5.63 27.56z" fill="#66114A" p-id="4034"></path></svg>